<svg id="F1_Logo" data-name="F1 Logo" xmlns="http://www.w3.org/2000/svg" viewBox="0 0 192 48"><defs><style>.cls-1{fill:#fff}</style></defs><path class="cls-1" d="M156.2 42.91h1.9V48h1.05v-5.09h1.91V42h-4.86zm5.54 5.09h1v-4.63l1.68 4.63h.86l1.72-4.63V48h1v-6h-1.5l-1.61 4.7-1.67-4.7h-1.48zM48.45 27.35L27.16 48H0l33.78-33.53C46.34 2 52.4 0 73.82 0h84.59l-18.36 18H76.24c-16 0-19.4 1.21-27.79 9.35zm88.86-6.51H76.62c-16.11 0-18.63 1.24-25.94 8.55L32.06 48h25.18l6-6c3.95-4 5.72-4.34 13.7-4.34h43.54zM143.87 48L192 0h-29.9l-48 48z"/></svg>